<mxfile host="65bd71144e">
    <diagram id="rOK4mXxlfZ7YCphl5fb5" name="FillArray">
        <mxGraphModel dx="288" dy="494" grid="1" gridSize="10" guides="1" tooltips="1" connect="1" arrows="1" fold="1" page="1" pageScale="1" pageWidth="827" pageHeight="1169" math="0" shadow="0">
            <root>
                <mxCell id="ZLFjbfQ9HzOBgUdA07Hk-0"/>
                <mxCell id="ZLFjbfQ9HzOBgUdA07Hk-1" parent="ZLFjbfQ9HzOBgUdA07Hk-0"/>
                <mxCell id="xCpnMUfckYimntiP1aNO-0" style="edgeStyle=none;html=1;exitX=0.5;exitY=1;exitDx=0;exitDy=0;entryX=0.444;entryY=0;entryDx=0;entryDy=0;entryPerimeter=0;" parent="ZLFjbfQ9HzOBgUdA07Hk-1" source="xCpnMUfckYimntiP1aNO-1" target="xCpnMUfckYimntiP1aNO-3" edge="1">
                    <mxGeometry relative="1" as="geometry"/>
                </mxCell>
                <mxCell id="xCpnMUfckYimntiP1aNO-1" value="start" style="ellipse;whiteSpace=wrap;html=1;" parent="ZLFjbfQ9HzOBgUdA07Hk-1" vertex="1">
                    <mxGeometry x="575" y="30" width="90" height="50" as="geometry"/>
                </mxCell>
                <mxCell id="xCpnMUfckYimntiP1aNO-2" style="edgeStyle=none;html=1;exitX=0.5;exitY=1;exitDx=0;exitDy=0;entryX=0.5;entryY=0;entryDx=0;entryDy=0;" parent="ZLFjbfQ9HzOBgUdA07Hk-1" source="xCpnMUfckYimntiP1aNO-3" target="xCpnMUfckYimntiP1aNO-5" edge="1">
                    <mxGeometry relative="1" as="geometry"/>
                </mxCell>
                <mxCell id="xCpnMUfckYimntiP1aNO-3" value="Input arrayLength" style="shape=parallelogram;perimeter=parallelogramPerimeter;whiteSpace=wrap;html=1;fixedSize=1;" parent="ZLFjbfQ9HzOBgUdA07Hk-1" vertex="1">
                    <mxGeometry x="562.5" y="150" width="135" height="60" as="geometry"/>
                </mxCell>
                <mxCell id="xCpnMUfckYimntiP1aNO-4" style="edgeStyle=none;html=1;exitX=0.5;exitY=1;exitDx=0;exitDy=0;" parent="ZLFjbfQ9HzOBgUdA07Hk-1" source="xCpnMUfckYimntiP1aNO-5" target="xCpnMUfckYimntiP1aNO-7" edge="1">
                    <mxGeometry relative="1" as="geometry"/>
                </mxCell>
                <mxCell id="xCpnMUfckYimntiP1aNO-5" value="&lt;p class=&quot;MsoNormal&quot; style=&quot;margin-bottom: 0cm ; margin-bottom: 0.0001pt ; line-height: 14.25pt ; background: #1e1e1e&quot;&gt;&lt;span lang=&quot;EN-US&quot;&gt;&lt;font style=&quot;font-size: 12px&quot;&gt;string[] stringArray&lt;br&gt;= FillArray(arrayLength)&lt;/font&gt;&lt;/span&gt;&lt;/p&gt;" style="shape=process;whiteSpace=wrap;html=1;backgroundOutline=1;" parent="ZLFjbfQ9HzOBgUdA07Hk-1" vertex="1">
                    <mxGeometry x="505" y="280" width="250" height="80" as="geometry"/>
                </mxCell>
                <mxCell id="xCpnMUfckYimntiP1aNO-6" style="edgeStyle=none;html=1;exitX=0.5;exitY=1;exitDx=0;exitDy=0;entryX=0.5;entryY=0;entryDx=0;entryDy=0;" parent="ZLFjbfQ9HzOBgUdA07Hk-1" source="xCpnMUfckYimntiP1aNO-7" target="xCpnMUfckYimntiP1aNO-15" edge="1">
                    <mxGeometry relative="1" as="geometry">
                        <mxPoint x="630" y="560" as="targetPoint"/>
                    </mxGeometry>
                </mxCell>
                <mxCell id="xCpnMUfckYimntiP1aNO-7" value="&lt;p class=&quot;MsoNormal&quot; style=&quot;margin-bottom: 0cm ; margin-bottom: 0.0001pt ; line-height: 14.25pt ; background: #1e1e1e&quot;&gt;&lt;span lang=&quot;EN-US&quot;&gt;&lt;font style=&quot;font-size: 12px&quot;&gt;int newArrayLength=&lt;/font&gt;&lt;/span&gt;&lt;/p&gt;&lt;p class=&quot;MsoNormal&quot; style=&quot;margin-bottom: 0cm ; margin-bottom: 0.0001pt ; line-height: 14.25pt ; background: #1e1e1e&quot;&gt;&amp;nbsp;FindNewArrayLength(stringArray, 3)&lt;/p&gt;" style="shape=process;whiteSpace=wrap;html=1;backgroundOutline=1;" parent="ZLFjbfQ9HzOBgUdA07Hk-1" vertex="1">
                    <mxGeometry x="505" y="420" width="250" height="80" as="geometry"/>
                </mxCell>
                <mxCell id="xCpnMUfckYimntiP1aNO-8" style="edgeStyle=none;html=1;exitX=0.5;exitY=1;exitDx=0;exitDy=0;entryX=0.5;entryY=0;entryDx=0;entryDy=0;" parent="ZLFjbfQ9HzOBgUdA07Hk-1" edge="1">
                    <mxGeometry relative="1" as="geometry">
                        <mxPoint x="629.5" y="650" as="sourcePoint"/>
                        <mxPoint x="629.5" y="715" as="targetPoint"/>
                    </mxGeometry>
                </mxCell>
                <mxCell id="xCpnMUfckYimntiP1aNO-9" style="edgeStyle=none;html=1;exitX=0.5;exitY=1;exitDx=0;exitDy=0;" parent="ZLFjbfQ9HzOBgUdA07Hk-1" source="xCpnMUfckYimntiP1aNO-16" target="xCpnMUfckYimntiP1aNO-11" edge="1">
                    <mxGeometry relative="1" as="geometry">
                        <mxPoint x="700" y="840" as="sourcePoint"/>
                        <Array as="points"/>
                    </mxGeometry>
                </mxCell>
                <mxCell id="xCpnMUfckYimntiP1aNO-10" style="edgeStyle=none;html=1;exitX=0.5;exitY=0.888;exitDx=0;exitDy=0;exitPerimeter=0;" parent="ZLFjbfQ9HzOBgUdA07Hk-1" source="xCpnMUfckYimntiP1aNO-11" target="xCpnMUfckYimntiP1aNO-12" edge="1">
                    <mxGeometry relative="1" as="geometry"/>
                </mxCell>
                <mxCell id="xCpnMUfckYimntiP1aNO-11" value="&lt;span lang=&quot;EN-US&quot; style=&quot;line-height: 115%&quot;&gt;&lt;font style=&quot;font-size: 12px&quot;&gt;Console.Write($&quot;{PrintArray(stringArray)} -&amp;gt; {PrintArray(newArray)}&quot;)&lt;/font&gt;&lt;/span&gt;" style="shape=document;whiteSpace=wrap;html=1;boundedLbl=1;" parent="ZLFjbfQ9HzOBgUdA07Hk-1" vertex="1">
                    <mxGeometry x="510" y="890" width="250" height="90" as="geometry"/>
                </mxCell>
                <mxCell id="xCpnMUfckYimntiP1aNO-12" value="End" style="ellipse;whiteSpace=wrap;html=1;" parent="ZLFjbfQ9HzOBgUdA07Hk-1" vertex="1">
                    <mxGeometry x="585" y="1050" width="100" height="70" as="geometry"/>
                </mxCell>
                <mxCell id="xCpnMUfckYimntiP1aNO-13" value="Схема&amp;nbsp;&lt;br&gt;решения&amp;nbsp;&lt;br&gt;всей&amp;nbsp;&lt;br&gt;задачи" style="text;html=1;align=center;verticalAlign=middle;resizable=0;points=[];autosize=1;strokeColor=none;fillColor=none;fontSize=12;fontFamily=Helvetica;" parent="ZLFjbfQ9HzOBgUdA07Hk-1" vertex="1">
                    <mxGeometry x="735" y="30" width="70" height="60" as="geometry"/>
                </mxCell>
                <mxCell id="xCpnMUfckYimntiP1aNO-14" value="" style="endArrow=none;dashed=1;html=1;exitX=1.022;exitY=0.38;exitDx=0;exitDy=0;exitPerimeter=0;" parent="ZLFjbfQ9HzOBgUdA07Hk-1" source="xCpnMUfckYimntiP1aNO-1" edge="1">
                    <mxGeometry width="50" height="50" relative="1" as="geometry">
                        <mxPoint x="482.5" y="240" as="sourcePoint"/>
                        <mxPoint x="725" y="49" as="targetPoint"/>
                    </mxGeometry>
                </mxCell>
                <mxCell id="xCpnMUfckYimntiP1aNO-15" value="&lt;span lang=&quot;EN-US&quot; style=&quot;line-height: 115%&quot;&gt;&lt;font style=&quot;font-size: 12px&quot;&gt;string[] newArray = CreateNewArray(stringArray, newArrayLength, 3)&lt;/font&gt;&lt;/span&gt;" style="shape=process;whiteSpace=wrap;html=1;backgroundOutline=1;" parent="ZLFjbfQ9HzOBgUdA07Hk-1" vertex="1">
                    <mxGeometry x="500" y="570" width="260" height="80" as="geometry"/>
                </mxCell>
                <mxCell id="xCpnMUfckYimntiP1aNO-16" value="string PrintArray(newarray)" style="shape=process;whiteSpace=wrap;html=1;backgroundOutline=1;" parent="ZLFjbfQ9HzOBgUdA07Hk-1" vertex="1">
                    <mxGeometry x="505" y="720" width="260" height="80" as="geometry"/>
                </mxCell>
                <mxCell id="xCpnMUfckYimntiP1aNO-17" value="" style="endArrow=none;html=1;fontFamily=Helvetica;fontSize=12;" parent="ZLFjbfQ9HzOBgUdA07Hk-1" edge="1">
                    <mxGeometry width="50" height="50" relative="1" as="geometry">
                        <mxPoint x="755" y="110" as="sourcePoint"/>
                        <mxPoint x="755" y="20" as="targetPoint"/>
                        <Array as="points">
                            <mxPoint x="725" y="110"/>
                            <mxPoint x="725" y="20"/>
                        </Array>
                    </mxGeometry>
                </mxCell>
                <mxCell id="YhuGUFaBcdJK5XcvVfjL-10" style="edgeStyle=none;html=1;exitX=0.5;exitY=1;exitDx=0;exitDy=0;entryX=0.5;entryY=0;entryDx=0;entryDy=0;" parent="ZLFjbfQ9HzOBgUdA07Hk-1" source="YhuGUFaBcdJK5XcvVfjL-0" target="YhuGUFaBcdJK5XcvVfjL-1" edge="1">
                    <mxGeometry relative="1" as="geometry"/>
                </mxCell>
                <mxCell id="YhuGUFaBcdJK5XcvVfjL-0" value="start" style="ellipse;whiteSpace=wrap;html=1;" parent="ZLFjbfQ9HzOBgUdA07Hk-1" vertex="1">
                    <mxGeometry x="110" y="30" width="90" height="50" as="geometry"/>
                </mxCell>
                <mxCell id="YhuGUFaBcdJK5XcvVfjL-12" style="edgeStyle=none;html=1;exitX=0.5;exitY=1;exitDx=0;exitDy=0;entryX=0.542;entryY=0.167;entryDx=0;entryDy=0;entryPerimeter=0;" parent="ZLFjbfQ9HzOBgUdA07Hk-1" source="YhuGUFaBcdJK5XcvVfjL-1" target="YhuGUFaBcdJK5XcvVfjL-2" edge="1">
                    <mxGeometry relative="1" as="geometry"/>
                </mxCell>
                <mxCell id="YhuGUFaBcdJK5XcvVfjL-1" value="&lt;b&gt;Input &lt;/b&gt;int length" style="shape=parallelogram;perimeter=parallelogramPerimeter;whiteSpace=wrap;html=1;fixedSize=1;" parent="ZLFjbfQ9HzOBgUdA07Hk-1" vertex="1">
                    <mxGeometry x="87.5" y="160" width="135" height="60" as="geometry"/>
                </mxCell>
                <mxCell id="YhuGUFaBcdJK5XcvVfjL-13" style="edgeStyle=none;html=1;exitX=0.5;exitY=1;exitDx=0;exitDy=0;entryX=0.5;entryY=0;entryDx=0;entryDy=0;" parent="ZLFjbfQ9HzOBgUdA07Hk-1" source="YhuGUFaBcdJK5XcvVfjL-2" target="YhuGUFaBcdJK5XcvVfjL-3" edge="1">
                    <mxGeometry relative="1" as="geometry"/>
                </mxCell>
                <mxCell id="YhuGUFaBcdJK5XcvVfjL-2" value="string [] array = new string[length]" style="rounded=0;whiteSpace=wrap;html=1;" parent="ZLFjbfQ9HzOBgUdA07Hk-1" vertex="1">
                    <mxGeometry x="90" y="280" width="120" height="60" as="geometry"/>
                </mxCell>
                <mxCell id="YhuGUFaBcdJK5XcvVfjL-9" style="edgeStyle=none;html=1;exitX=1;exitY=0.5;exitDx=0;exitDy=0;entryX=0;entryY=0.5;entryDx=0;entryDy=0;" parent="ZLFjbfQ9HzOBgUdA07Hk-1" source="YhuGUFaBcdJK5XcvVfjL-3" target="YhuGUFaBcdJK5XcvVfjL-8" edge="1">
                    <mxGeometry relative="1" as="geometry"/>
                </mxCell>
                <mxCell id="YhuGUFaBcdJK5XcvVfjL-14" style="edgeStyle=none;html=1;exitX=0.5;exitY=1;exitDx=0;exitDy=0;entryX=0.5;entryY=0;entryDx=0;entryDy=0;" parent="ZLFjbfQ9HzOBgUdA07Hk-1" source="YhuGUFaBcdJK5XcvVfjL-3" target="YhuGUFaBcdJK5XcvVfjL-4" edge="1">
                    <mxGeometry relative="1" as="geometry"/>
                </mxCell>
                <mxCell id="YhuGUFaBcdJK5XcvVfjL-3" value="&lt;span&gt;i = 0, length -1, 1&lt;/span&gt;" style="shape=hexagon;perimeter=hexagonPerimeter2;whiteSpace=wrap;html=1;fixedSize=1;" parent="ZLFjbfQ9HzOBgUdA07Hk-1" vertex="1">
                    <mxGeometry x="82.5" y="410" width="135" height="80" as="geometry"/>
                </mxCell>
                <mxCell id="YhuGUFaBcdJK5XcvVfjL-15" style="edgeStyle=none;html=1;exitX=0.5;exitY=1;exitDx=0;exitDy=0;entryX=0.5;entryY=0;entryDx=0;entryDy=0;" parent="ZLFjbfQ9HzOBgUdA07Hk-1" source="YhuGUFaBcdJK5XcvVfjL-4" target="YhuGUFaBcdJK5XcvVfjL-5" edge="1">
                    <mxGeometry relative="1" as="geometry"/>
                </mxCell>
                <mxCell id="YhuGUFaBcdJK5XcvVfjL-4" value="&quot;Введите {i + 1} й элемент:&amp;nbsp; &quot;" style="shape=parallelogram;perimeter=parallelogramPerimeter;whiteSpace=wrap;html=1;fixedSize=1;" parent="ZLFjbfQ9HzOBgUdA07Hk-1" vertex="1">
                    <mxGeometry x="85" y="540" width="130" height="60" as="geometry"/>
                </mxCell>
                <mxCell id="YhuGUFaBcdJK5XcvVfjL-16" style="edgeStyle=none;html=1;exitX=0.5;exitY=1;exitDx=0;exitDy=0;entryX=0.5;entryY=0;entryDx=0;entryDy=0;" parent="ZLFjbfQ9HzOBgUdA07Hk-1" source="YhuGUFaBcdJK5XcvVfjL-5" target="YhuGUFaBcdJK5XcvVfjL-6" edge="1">
                    <mxGeometry relative="1" as="geometry"/>
                </mxCell>
                <mxCell id="YhuGUFaBcdJK5XcvVfjL-5" value="array[ i ] = Console.ReadLine()" style="rounded=0;whiteSpace=wrap;html=1;" parent="ZLFjbfQ9HzOBgUdA07Hk-1" vertex="1">
                    <mxGeometry x="90" y="650" width="120" height="60" as="geometry"/>
                </mxCell>
                <mxCell id="YhuGUFaBcdJK5XcvVfjL-7" style="edgeStyle=none;html=1;exitX=0.454;exitY=1.067;exitDx=0;exitDy=0;exitPerimeter=0;" parent="ZLFjbfQ9HzOBgUdA07Hk-1" source="YhuGUFaBcdJK5XcvVfjL-6" edge="1">
                    <mxGeometry relative="1" as="geometry">
                        <mxPoint x="80" y="450" as="targetPoint"/>
                        <Array as="points">
                            <mxPoint x="144" y="870"/>
                            <mxPoint x="20" y="870"/>
                            <mxPoint x="20" y="450"/>
                        </Array>
                    </mxGeometry>
                </mxCell>
                <mxCell id="YhuGUFaBcdJK5XcvVfjL-6" value="Console.WriteLine()" style="shape=parallelogram;perimeter=parallelogramPerimeter;whiteSpace=wrap;html=1;fixedSize=1;" parent="ZLFjbfQ9HzOBgUdA07Hk-1" vertex="1">
                    <mxGeometry x="80" y="780" width="140" height="60" as="geometry"/>
                </mxCell>
                <mxCell id="YhuGUFaBcdJK5XcvVfjL-8" value="End" style="ellipse;whiteSpace=wrap;html=1;" parent="ZLFjbfQ9HzOBgUdA07Hk-1" vertex="1">
                    <mxGeometry x="280" y="420" width="100" height="60" as="geometry"/>
                </mxCell>
                <mxCell id="II17gixbZ6DvQ7k6-YTo-0" value="" style="endArrow=none;html=1;" parent="ZLFjbfQ9HzOBgUdA07Hk-1" edge="1">
                    <mxGeometry width="50" height="50" relative="1" as="geometry">
                        <mxPoint x="320" y="160" as="sourcePoint"/>
                        <mxPoint x="320" y="10" as="targetPoint"/>
                        <Array as="points">
                            <mxPoint x="270" y="160"/>
                            <mxPoint x="270" y="10"/>
                        </Array>
                    </mxGeometry>
                </mxCell>
                <mxCell id="II17gixbZ6DvQ7k6-YTo-1" value="&lt;div style=&quot;text-align: left&quot;&gt;&lt;span&gt;string[] FillArray(int length)&lt;/span&gt;&lt;/div&gt;&lt;div style=&quot;text-align: left&quot;&gt;&lt;span&gt;//Метод создает и заполняет&amp;nbsp;&lt;/span&gt;&lt;/div&gt;&lt;div style=&quot;text-align: left&quot;&gt;&lt;span&gt;исходный массив строк путем&lt;/span&gt;&lt;/div&gt;&lt;div style=&quot;text-align: left&quot;&gt;&lt;span&gt;&amp;nbsp;ввода строк пользователем&amp;nbsp; с клавиатуры.&lt;/span&gt;&lt;/div&gt;&lt;div style=&quot;text-align: left&quot;&gt;&lt;span&gt;//Возвращает исходный массив строк array&lt;/span&gt;&lt;/div&gt;&lt;div style=&quot;text-align: left&quot;&gt;&lt;span&gt;// Артгумент метода:&amp;nbsp;&lt;/span&gt;&lt;/div&gt;&lt;div style=&quot;text-align: left&quot;&gt;Длина исходного массива строк length&lt;/div&gt;" style="text;html=1;align=center;verticalAlign=middle;resizable=0;points=[];autosize=1;strokeColor=none;fillColor=none;fontSize=12;fontFamily=Helvetica;" parent="ZLFjbfQ9HzOBgUdA07Hk-1" vertex="1">
                    <mxGeometry x="275" y="30" width="260" height="100" as="geometry"/>
                </mxCell>
                <mxCell id="II17gixbZ6DvQ7k6-YTo-2" value="" style="endArrow=none;dashed=1;html=1;exitX=1;exitY=0.5;exitDx=0;exitDy=0;" parent="ZLFjbfQ9HzOBgUdA07Hk-1" source="YhuGUFaBcdJK5XcvVfjL-0" edge="1">
                    <mxGeometry width="50" height="50" relative="1" as="geometry">
                        <mxPoint x="390" y="260" as="sourcePoint"/>
                        <mxPoint x="270" y="55" as="targetPoint"/>
                    </mxGeometry>
                </mxCell>
                <mxCell id="II17gixbZ6DvQ7k6-YTo-3" value="" style="endArrow=none;dashed=1;html=1;dashPattern=1 3;strokeWidth=2;" parent="ZLFjbfQ9HzOBgUdA07Hk-1" edge="1">
                    <mxGeometry width="50" height="50" relative="1" as="geometry">
                        <mxPoint x="320" y="160" as="sourcePoint"/>
                        <mxPoint x="500" y="320" as="targetPoint"/>
                    </mxGeometry>
                </mxCell>
            </root>
        </mxGraphModel>
    </diagram>
    <diagram id="BUDHd59vHn-Sn7zRhiGd" name="FindNewArrayLength">
        <mxGraphModel dx="288" dy="494" grid="1" gridSize="10" guides="1" tooltips="1" connect="1" arrows="1" fold="1" page="1" pageScale="1" pageWidth="827" pageHeight="1169" math="0" shadow="0">
            <root>
                <mxCell id="0"/>
                <mxCell id="1" parent="0"/>
                <mxCell id="10" style="edgeStyle=none;html=1;exitX=0.5;exitY=1;exitDx=0;exitDy=0;entryX=0.5;entryY=0;entryDx=0;entryDy=0;" parent="1" source="3" target="4" edge="1">
                    <mxGeometry relative="1" as="geometry"/>
                </mxCell>
                <mxCell id="3" value="start" style="ellipse;whiteSpace=wrap;html=1;" parent="1" vertex="1">
                    <mxGeometry x="110" y="20" width="90" height="60" as="geometry"/>
                </mxCell>
                <mxCell id="11" style="edgeStyle=none;html=1;exitX=0.5;exitY=1;exitDx=0;exitDy=0;entryX=0.5;entryY=0;entryDx=0;entryDy=0;" parent="1" source="4" target="5" edge="1">
                    <mxGeometry relative="1" as="geometry"/>
                </mxCell>
                <mxCell id="4" value="&lt;b&gt;Input&lt;/b&gt; string[] someArray" style="shape=parallelogram;perimeter=parallelogramPerimeter;whiteSpace=wrap;html=1;fixedSize=1;" parent="1" vertex="1">
                    <mxGeometry x="75" y="120" width="160" height="60" as="geometry"/>
                </mxCell>
                <mxCell id="12" style="edgeStyle=none;html=1;exitX=0.5;exitY=1;exitDx=0;exitDy=0;entryX=0.5;entryY=0;entryDx=0;entryDy=0;" parent="1" source="5" target="6" edge="1">
                    <mxGeometry relative="1" as="geometry"/>
                </mxCell>
                <mxCell id="5" value="&lt;b&gt;Input &lt;/b&gt;int number" style="shape=parallelogram;perimeter=parallelogramPerimeter;whiteSpace=wrap;html=1;fixedSize=1;" parent="1" vertex="1">
                    <mxGeometry x="77.5" y="230" width="157.5" height="60" as="geometry"/>
                </mxCell>
                <mxCell id="13" style="edgeStyle=none;html=1;exitX=0.5;exitY=1;exitDx=0;exitDy=0;entryX=0.5;entryY=0;entryDx=0;entryDy=0;" parent="1" source="6" target="7" edge="1">
                    <mxGeometry relative="1" as="geometry"/>
                </mxCell>
                <mxCell id="6" value="int count = 0" style="rounded=0;whiteSpace=wrap;html=1;" parent="1" vertex="1">
                    <mxGeometry x="95" y="340" width="120" height="60" as="geometry"/>
                </mxCell>
                <mxCell id="14" style="edgeStyle=none;html=1;exitX=0.5;exitY=1;exitDx=0;exitDy=0;entryX=0.5;entryY=0;entryDx=0;entryDy=0;" parent="1" source="7" target="8" edge="1">
                    <mxGeometry relative="1" as="geometry"/>
                </mxCell>
                <mxCell id="7" value="i = 0, someArray.Length -1, 1" style="shape=hexagon;perimeter=hexagonPerimeter2;whiteSpace=wrap;html=1;fixedSize=1;" parent="1" vertex="1">
                    <mxGeometry x="70" y="460" width="170" height="80" as="geometry"/>
                </mxCell>
                <mxCell id="15" style="edgeStyle=none;html=1;exitX=0.5;exitY=1;exitDx=0;exitDy=0;entryX=0.5;entryY=0;entryDx=0;entryDy=0;" parent="1" source="8" target="9" edge="1">
                    <mxGeometry relative="1" as="geometry"/>
                </mxCell>
                <mxCell id="8" value="someArray[ i ].Length&lt;br&gt;&amp;nbsp;&amp;lt;= number" style="rhombus;whiteSpace=wrap;html=1;" parent="1" vertex="1">
                    <mxGeometry x="80" y="600" width="150" height="100" as="geometry"/>
                </mxCell>
                <mxCell id="9" value="count = count + 1" style="rounded=0;whiteSpace=wrap;html=1;" parent="1" vertex="1">
                    <mxGeometry x="95" y="770" width="120" height="60" as="geometry"/>
                </mxCell>
                <mxCell id="16" value="" style="endArrow=classic;html=1;exitX=1;exitY=0.5;exitDx=0;exitDy=0;" parent="1" source="8" edge="1">
                    <mxGeometry width="50" height="50" relative="1" as="geometry">
                        <mxPoint x="400" y="790" as="sourcePoint"/>
                        <mxPoint x="320" y="650" as="targetPoint"/>
                    </mxGeometry>
                </mxCell>
                <mxCell id="17" value="" style="endArrow=classic;html=1;" parent="1" edge="1">
                    <mxGeometry width="50" height="50" relative="1" as="geometry">
                        <mxPoint x="320" y="650" as="sourcePoint"/>
                        <mxPoint x="320" y="920" as="targetPoint"/>
                    </mxGeometry>
                </mxCell>
                <mxCell id="18" value="" style="endArrow=classic;html=1;" parent="1" edge="1">
                    <mxGeometry width="50" height="50" relative="1" as="geometry">
                        <mxPoint x="320" y="920" as="sourcePoint"/>
                        <mxPoint x="40" y="920" as="targetPoint"/>
                    </mxGeometry>
                </mxCell>
                <mxCell id="19" value="" style="endArrow=classic;html=1;" parent="1" edge="1">
                    <mxGeometry width="50" height="50" relative="1" as="geometry">
                        <mxPoint x="40" y="920" as="sourcePoint"/>
                        <mxPoint x="40" y="500" as="targetPoint"/>
                    </mxGeometry>
                </mxCell>
                <mxCell id="20" value="" style="endArrow=classic;html=1;entryX=0;entryY=0.5;entryDx=0;entryDy=0;" parent="1" target="7" edge="1">
                    <mxGeometry width="50" height="50" relative="1" as="geometry">
                        <mxPoint x="40" y="500" as="sourcePoint"/>
                        <mxPoint x="450" y="510" as="targetPoint"/>
                    </mxGeometry>
                </mxCell>
                <mxCell id="21" value="" style="endArrow=classic;html=1;exitX=0.5;exitY=1;exitDx=0;exitDy=0;" parent="1" source="9" edge="1">
                    <mxGeometry width="50" height="50" relative="1" as="geometry">
                        <mxPoint x="400" y="760" as="sourcePoint"/>
                        <mxPoint x="155" y="920" as="targetPoint"/>
                    </mxGeometry>
                </mxCell>
                <mxCell id="22" value="End" style="ellipse;whiteSpace=wrap;html=1;" parent="1" vertex="1">
                    <mxGeometry x="270" y="470" width="80" height="60" as="geometry"/>
                </mxCell>
                <mxCell id="23" value="" style="endArrow=classic;html=1;exitX=1;exitY=0.5;exitDx=0;exitDy=0;entryX=0;entryY=0.5;entryDx=0;entryDy=0;" parent="1" source="7" target="22" edge="1">
                    <mxGeometry width="50" height="50" relative="1" as="geometry">
                        <mxPoint x="400" y="660" as="sourcePoint"/>
                        <mxPoint x="450" y="610" as="targetPoint"/>
                    </mxGeometry>
                </mxCell>
                <mxCell id="24" value="No" style="text;html=1;align=center;verticalAlign=middle;resizable=0;points=[];autosize=1;strokeColor=none;fillColor=none;" parent="1" vertex="1">
                    <mxGeometry x="255" y="620" width="30" height="20" as="geometry"/>
                </mxCell>
                <mxCell id="25" value="Yes" style="text;html=1;align=center;verticalAlign=middle;resizable=0;points=[];autosize=1;strokeColor=none;fillColor=none;" parent="1" vertex="1">
                    <mxGeometry x="150" y="710" width="40" height="20" as="geometry"/>
                </mxCell>
                <mxCell id="26" value="" style="endArrow=none;html=1;" parent="1" edge="1">
                    <mxGeometry width="50" height="50" relative="1" as="geometry">
                        <mxPoint x="300" y="200" as="sourcePoint"/>
                        <mxPoint x="300" y="20" as="targetPoint"/>
                        <Array as="points">
                            <mxPoint x="280" y="200"/>
                            <mxPoint x="280" y="20"/>
                        </Array>
                    </mxGeometry>
                </mxCell>
                <mxCell id="27" value="" style="endArrow=none;dashed=1;html=1;exitX=1;exitY=0.5;exitDx=0;exitDy=0;" parent="1" source="3" edge="1">
                    <mxGeometry width="50" height="50" relative="1" as="geometry">
                        <mxPoint x="400" y="120" as="sourcePoint"/>
                        <mxPoint x="280" y="50" as="targetPoint"/>
                        <Array as="points">
                            <mxPoint x="240" y="50"/>
                        </Array>
                    </mxGeometry>
                </mxCell>
                <mxCell id="28" value="int FindNewArrayLength&lt;br&gt;(string[] someArray, int number)" style="text;html=1;align=left;verticalAlign=middle;resizable=0;points=[];autosize=1;strokeColor=none;fillColor=none;" parent="1" vertex="1">
                    <mxGeometry x="288" y="30" width="180" height="30" as="geometry"/>
                </mxCell>
                <mxCell id="30" value="// Аргументы функции: &lt;br&gt;исходный массив строк someArray&amp;nbsp;&lt;br&gt;&amp;nbsp;и число number, &lt;br&gt;которое ограничивает&lt;br&gt;&amp;nbsp;длину строк нового массива&lt;br&gt;//Функция возвращает длину count&lt;br&gt;&lt;font color=&quot;rgba(0, 0, 0, 0)&quot; face=&quot;monospace&quot;&gt;&lt;span style=&quot;font-size: 0px&quot;&gt;сщгте&lt;/span&gt;&lt;/font&gt;&amp;nbsp;нового массива , который будет&amp;nbsp;&lt;br&gt;состоять из тех строк исходного массива,&lt;br&gt;длина которых меньше или равна number" style="text;html=1;align=left;verticalAlign=middle;resizable=0;points=[];autosize=1;strokeColor=none;fillColor=none;" parent="1" vertex="1">
                    <mxGeometry x="285" y="60" width="250" height="140" as="geometry"/>
                </mxCell>
                <mxCell id="40" style="edgeStyle=none;html=1;exitX=0.5;exitY=1;exitDx=0;exitDy=0;entryX=0.444;entryY=0;entryDx=0;entryDy=0;entryPerimeter=0;" parent="1" source="32" target="33" edge="1">
                    <mxGeometry relative="1" as="geometry"/>
                </mxCell>
                <mxCell id="32" value="start" style="ellipse;whiteSpace=wrap;html=1;" parent="1" vertex="1">
                    <mxGeometry x="610" y="25" width="90" height="50" as="geometry"/>
                </mxCell>
                <mxCell id="41" style="edgeStyle=none;html=1;exitX=0.5;exitY=1;exitDx=0;exitDy=0;entryX=0.5;entryY=0;entryDx=0;entryDy=0;" parent="1" source="33" target="34" edge="1">
                    <mxGeometry relative="1" as="geometry"/>
                </mxCell>
                <mxCell id="33" value="Input arrayLength" style="shape=parallelogram;perimeter=parallelogramPerimeter;whiteSpace=wrap;html=1;fixedSize=1;" parent="1" vertex="1">
                    <mxGeometry x="595" y="120" width="135" height="60" as="geometry"/>
                </mxCell>
                <mxCell id="42" style="edgeStyle=none;html=1;exitX=0.5;exitY=1;exitDx=0;exitDy=0;" parent="1" source="34" target="35" edge="1">
                    <mxGeometry relative="1" as="geometry"/>
                </mxCell>
                <mxCell id="34" value="&lt;p class=&quot;MsoNormal&quot; style=&quot;margin-bottom: 0cm ; margin-bottom: 0.0001pt ; line-height: 14.25pt ; background: #1e1e1e&quot;&gt;&lt;span lang=&quot;EN-US&quot;&gt;&lt;font style=&quot;font-size: 12px&quot;&gt;string[] stringArray&lt;br&gt;= FillArray(arrayLength)&lt;/font&gt;&lt;/span&gt;&lt;/p&gt;" style="shape=process;whiteSpace=wrap;html=1;backgroundOutline=1;" parent="1" vertex="1">
                    <mxGeometry x="540" y="220" width="250" height="80" as="geometry"/>
                </mxCell>
                <mxCell id="43" style="edgeStyle=none;html=1;exitX=0.5;exitY=1;exitDx=0;exitDy=0;entryX=0.5;entryY=0;entryDx=0;entryDy=0;" parent="1" source="35" target="36" edge="1">
                    <mxGeometry relative="1" as="geometry"/>
                </mxCell>
                <mxCell id="35" value="&lt;p class=&quot;MsoNormal&quot; style=&quot;margin-bottom: 0cm ; margin-bottom: 0.0001pt ; line-height: 14.25pt ; background: #1e1e1e&quot;&gt;&lt;span lang=&quot;EN-US&quot;&gt;&lt;font style=&quot;font-size: 12px&quot;&gt;int newArrayLength=&lt;/font&gt;&lt;/span&gt;&lt;/p&gt;&lt;p class=&quot;MsoNormal&quot; style=&quot;margin-bottom: 0cm ; margin-bottom: 0.0001pt ; line-height: 14.25pt ; background: #1e1e1e&quot;&gt;&amp;nbsp;FindNewArrayLength(stringArray, 3)&lt;/p&gt;" style="shape=process;whiteSpace=wrap;html=1;backgroundOutline=1;" parent="1" vertex="1">
                    <mxGeometry x="540" y="340" width="250" height="80" as="geometry"/>
                </mxCell>
                <mxCell id="44" style="edgeStyle=none;html=1;exitX=0.5;exitY=1;exitDx=0;exitDy=0;entryX=0.5;entryY=0;entryDx=0;entryDy=0;" parent="1" source="36" target="37" edge="1">
                    <mxGeometry relative="1" as="geometry"/>
                </mxCell>
                <mxCell id="36" value="&lt;span lang=&quot;EN-US&quot; style=&quot;line-height: 115%&quot;&gt;&lt;font style=&quot;font-size: 12px&quot;&gt;string[] newArray = CreateNewArray(stringArray, newArrayLength, 3)&lt;/font&gt;&lt;/span&gt;" style="shape=process;whiteSpace=wrap;html=1;backgroundOutline=1;" parent="1" vertex="1">
                    <mxGeometry x="535" y="460" width="260" height="80" as="geometry"/>
                </mxCell>
                <mxCell id="45" style="edgeStyle=none;html=1;exitX=0.5;exitY=1;exitDx=0;exitDy=0;" parent="1" source="37" target="38" edge="1">
                    <mxGeometry relative="1" as="geometry"/>
                </mxCell>
                <mxCell id="37" value="string PrintArray(newarray)" style="shape=process;whiteSpace=wrap;html=1;backgroundOutline=1;" parent="1" vertex="1">
                    <mxGeometry x="535" y="610" width="260" height="80" as="geometry"/>
                </mxCell>
                <mxCell id="46" style="edgeStyle=none;html=1;exitX=0.5;exitY=0.888;exitDx=0;exitDy=0;exitPerimeter=0;" parent="1" source="38" target="39" edge="1">
                    <mxGeometry relative="1" as="geometry"/>
                </mxCell>
                <mxCell id="38" value="&lt;span lang=&quot;EN-US&quot; style=&quot;line-height: 115%&quot;&gt;&lt;font style=&quot;font-size: 12px&quot;&gt;Console.Write($&quot;{PrintArray(stringArray)} -&amp;gt; {PrintArray(newArray)}&quot;)&lt;/font&gt;&lt;/span&gt;" style="shape=document;whiteSpace=wrap;html=1;boundedLbl=1;" parent="1" vertex="1">
                    <mxGeometry x="540" y="750" width="250" height="90" as="geometry"/>
                </mxCell>
                <mxCell id="39" value="End" style="ellipse;whiteSpace=wrap;html=1;" parent="1" vertex="1">
                    <mxGeometry x="615" y="900" width="100" height="70" as="geometry"/>
                </mxCell>
                <mxCell id="47" value="" style="endArrow=none;dashed=1;html=1;dashPattern=1 3;strokeWidth=2;fontFamily=Helvetica;fontSize=12;entryX=0;entryY=0.25;entryDx=0;entryDy=0;exitX=0.432;exitY=1.036;exitDx=0;exitDy=0;exitPerimeter=0;" parent="1" source="30" target="35" edge="1">
                    <mxGeometry width="50" height="50" relative="1" as="geometry">
                        <mxPoint x="400" y="410" as="sourcePoint"/>
                        <mxPoint x="450" y="360" as="targetPoint"/>
                    </mxGeometry>
                </mxCell>
                <mxCell id="48" value="" style="endArrow=none;dashed=1;html=1;fontFamily=Helvetica;fontSize=12;entryX=1;entryY=0.5;entryDx=0;entryDy=0;" parent="1" target="32" edge="1">
                    <mxGeometry width="50" height="50" relative="1" as="geometry">
                        <mxPoint x="730" y="50" as="sourcePoint"/>
                        <mxPoint x="450" y="70" as="targetPoint"/>
                    </mxGeometry>
                </mxCell>
                <mxCell id="49" value="" style="endArrow=none;html=1;fontFamily=Helvetica;fontSize=12;" parent="1" edge="1">
                    <mxGeometry width="50" height="50" relative="1" as="geometry">
                        <mxPoint x="760" y="110" as="sourcePoint"/>
                        <mxPoint x="760" y="20" as="targetPoint"/>
                        <Array as="points">
                            <mxPoint x="730" y="110"/>
                            <mxPoint x="730" y="20"/>
                        </Array>
                    </mxGeometry>
                </mxCell>
                <mxCell id="50" value="Схема&amp;nbsp;&lt;br&gt;решения&amp;nbsp;&lt;br&gt;всей&amp;nbsp;&lt;br&gt;задачи" style="text;html=1;align=center;verticalAlign=middle;resizable=0;points=[];autosize=1;strokeColor=none;fillColor=none;fontSize=12;fontFamily=Helvetica;" parent="1" vertex="1">
                    <mxGeometry x="740" y="30" width="70" height="60" as="geometry"/>
                </mxCell>
            </root>
        </mxGraphModel>
    </diagram>
    <diagram id="9cwROIkATJ8h14jdqO5l" name="CreateNewArray">
        <mxGraphModel dx="288" dy="494" grid="1" gridSize="10" guides="1" tooltips="1" connect="1" arrows="1" fold="1" page="1" pageScale="1" pageWidth="827" pageHeight="1169" math="0" shadow="0">
            <root>
                <mxCell id="WYaakM-BK-kbKQ9GXrH5-0"/>
                <mxCell id="WYaakM-BK-kbKQ9GXrH5-1" parent="WYaakM-BK-kbKQ9GXrH5-0"/>
                <mxCell id="PL3wQIosWrRBUe69JCpg-0" style="edgeStyle=none;html=1;exitX=0.5;exitY=1;exitDx=0;exitDy=0;entryX=0.5;entryY=0;entryDx=0;entryDy=0;" parent="WYaakM-BK-kbKQ9GXrH5-1" target="PL3wQIosWrRBUe69JCpg-2" edge="1">
                    <mxGeometry relative="1" as="geometry">
                        <mxPoint x="155" y="80" as="sourcePoint"/>
                    </mxGeometry>
                </mxCell>
                <mxCell id="PL3wQIosWrRBUe69JCpg-1" style="edgeStyle=none;html=1;exitX=0.5;exitY=1;exitDx=0;exitDy=0;entryX=0.5;entryY=0;entryDx=0;entryDy=0;" parent="WYaakM-BK-kbKQ9GXrH5-1" source="PL3wQIosWrRBUe69JCpg-2" target="PL3wQIosWrRBUe69JCpg-4" edge="1">
                    <mxGeometry relative="1" as="geometry"/>
                </mxCell>
                <mxCell id="PL3wQIosWrRBUe69JCpg-2" value="&lt;b&gt;Input&lt;/b&gt; string[] someArray" style="shape=parallelogram;perimeter=parallelogramPerimeter;whiteSpace=wrap;html=1;fixedSize=1;" parent="WYaakM-BK-kbKQ9GXrH5-1" vertex="1">
                    <mxGeometry x="75" y="120" width="160" height="60" as="geometry"/>
                </mxCell>
                <mxCell id="PL3wQIosWrRBUe69JCpg-3" style="edgeStyle=none;html=1;exitX=0.5;exitY=1;exitDx=0;exitDy=0;entryX=0.5;entryY=0;entryDx=0;entryDy=0;" parent="WYaakM-BK-kbKQ9GXrH5-1" source="PL3wQIosWrRBUe69JCpg-4" target="PL3wQIosWrRBUe69JCpg-6" edge="1">
                    <mxGeometry relative="1" as="geometry"/>
                </mxCell>
                <mxCell id="PL3wQIosWrRBUe69JCpg-4" value="&lt;b&gt;Input &lt;/b&gt;int number" style="shape=parallelogram;perimeter=parallelogramPerimeter;whiteSpace=wrap;html=1;fixedSize=1;" parent="WYaakM-BK-kbKQ9GXrH5-1" vertex="1">
                    <mxGeometry x="77.5" y="230" width="157.5" height="60" as="geometry"/>
                </mxCell>
                <mxCell id="CWt5amc0Uw6hjU2jiGRZ-3" style="edgeStyle=none;html=1;exitX=0.5;exitY=1;exitDx=0;exitDy=0;entryX=0.5;entryY=0;entryDx=0;entryDy=0;" parent="WYaakM-BK-kbKQ9GXrH5-1" source="PL3wQIosWrRBUe69JCpg-6" target="CWt5amc0Uw6hjU2jiGRZ-2" edge="1">
                    <mxGeometry relative="1" as="geometry"/>
                </mxCell>
                <mxCell id="PL3wQIosWrRBUe69JCpg-6" value="string[] newArray = new string[length]" style="rounded=0;whiteSpace=wrap;html=1;" parent="WYaakM-BK-kbKQ9GXrH5-1" vertex="1">
                    <mxGeometry x="80" y="480" width="160" height="60" as="geometry"/>
                </mxCell>
                <mxCell id="PL3wQIosWrRBUe69JCpg-7" style="edgeStyle=none;html=1;exitX=0.5;exitY=1;exitDx=0;exitDy=0;entryX=0.5;entryY=0;entryDx=0;entryDy=0;" parent="WYaakM-BK-kbKQ9GXrH5-1" source="PL3wQIosWrRBUe69JCpg-8" target="PL3wQIosWrRBUe69JCpg-10" edge="1">
                    <mxGeometry relative="1" as="geometry"/>
                </mxCell>
                <mxCell id="PL3wQIosWrRBUe69JCpg-8" value="i = 0, someArray.Length -1, 1" style="shape=hexagon;perimeter=hexagonPerimeter2;whiteSpace=wrap;html=1;fixedSize=1;" parent="WYaakM-BK-kbKQ9GXrH5-1" vertex="1">
                    <mxGeometry x="76.25" y="710" width="170" height="80" as="geometry"/>
                </mxCell>
                <mxCell id="PL3wQIosWrRBUe69JCpg-9" style="edgeStyle=none;html=1;exitX=0.5;exitY=1;exitDx=0;exitDy=0;entryX=0.5;entryY=0;entryDx=0;entryDy=0;" parent="WYaakM-BK-kbKQ9GXrH5-1" source="PL3wQIosWrRBUe69JCpg-10" target="PL3wQIosWrRBUe69JCpg-11" edge="1">
                    <mxGeometry relative="1" as="geometry"/>
                </mxCell>
                <mxCell id="PL3wQIosWrRBUe69JCpg-10" value="someArray[ i ].Length&lt;br&gt;&amp;nbsp;&amp;lt;= number" style="rhombus;whiteSpace=wrap;html=1;" parent="WYaakM-BK-kbKQ9GXrH5-1" vertex="1">
                    <mxGeometry x="86.25" y="830" width="150" height="100" as="geometry"/>
                </mxCell>
                <mxCell id="CWt5amc0Uw6hjU2jiGRZ-10" style="edgeStyle=none;html=1;exitX=0.5;exitY=1;exitDx=0;exitDy=0;entryX=0.5;entryY=0;entryDx=0;entryDy=0;" parent="WYaakM-BK-kbKQ9GXrH5-1" source="PL3wQIosWrRBUe69JCpg-11" target="CWt5amc0Uw6hjU2jiGRZ-7" edge="1">
                    <mxGeometry relative="1" as="geometry"/>
                </mxCell>
                <mxCell id="PL3wQIosWrRBUe69JCpg-11" value="newArray[ j ] = someArray[ i ]" style="rounded=0;whiteSpace=wrap;html=1;" parent="WYaakM-BK-kbKQ9GXrH5-1" vertex="1">
                    <mxGeometry x="101.25" y="960" width="120" height="60" as="geometry"/>
                </mxCell>
                <mxCell id="PL3wQIosWrRBUe69JCpg-12" value="" style="endArrow=classic;html=1;exitX=1;exitY=0.5;exitDx=0;exitDy=0;" parent="WYaakM-BK-kbKQ9GXrH5-1" source="PL3wQIosWrRBUe69JCpg-10" edge="1">
                    <mxGeometry width="50" height="50" relative="1" as="geometry">
                        <mxPoint x="400" y="790" as="sourcePoint"/>
                        <mxPoint x="330" y="880" as="targetPoint"/>
                    </mxGeometry>
                </mxCell>
                <mxCell id="PL3wQIosWrRBUe69JCpg-13" value="" style="endArrow=classic;html=1;" parent="WYaakM-BK-kbKQ9GXrH5-1" edge="1">
                    <mxGeometry width="50" height="50" relative="1" as="geometry">
                        <mxPoint x="330" y="880" as="sourcePoint"/>
                        <mxPoint x="330" y="1140" as="targetPoint"/>
                    </mxGeometry>
                </mxCell>
                <mxCell id="PL3wQIosWrRBUe69JCpg-15" value="End" style="ellipse;whiteSpace=wrap;html=1;" parent="WYaakM-BK-kbKQ9GXrH5-1" vertex="1">
                    <mxGeometry x="330" y="720" width="80" height="60" as="geometry"/>
                </mxCell>
                <mxCell id="PL3wQIosWrRBUe69JCpg-16" value="" style="endArrow=classic;html=1;exitX=1;exitY=0.5;exitDx=0;exitDy=0;" parent="WYaakM-BK-kbKQ9GXrH5-1" source="PL3wQIosWrRBUe69JCpg-8" edge="1">
                    <mxGeometry width="50" height="50" relative="1" as="geometry">
                        <mxPoint x="400" y="660" as="sourcePoint"/>
                        <mxPoint x="330" y="750" as="targetPoint"/>
                    </mxGeometry>
                </mxCell>
                <mxCell id="PL3wQIosWrRBUe69JCpg-19" value="" style="endArrow=none;dashed=1;html=1;exitX=1;exitY=0.5;exitDx=0;exitDy=0;" parent="WYaakM-BK-kbKQ9GXrH5-1" edge="1">
                    <mxGeometry width="50" height="50" relative="1" as="geometry">
                        <mxPoint x="200" y="50" as="sourcePoint"/>
                        <mxPoint x="280" y="50" as="targetPoint"/>
                        <Array as="points">
                            <mxPoint x="240" y="50"/>
                        </Array>
                    </mxGeometry>
                </mxCell>
                <mxCell id="CWt5amc0Uw6hjU2jiGRZ-0" value="start" style="ellipse;whiteSpace=wrap;html=1;" parent="WYaakM-BK-kbKQ9GXrH5-1" vertex="1">
                    <mxGeometry x="110" y="20" width="90" height="60" as="geometry"/>
                </mxCell>
                <mxCell id="CWt5amc0Uw6hjU2jiGRZ-1" value="&lt;b&gt;Input &lt;/b&gt;int length" style="shape=parallelogram;perimeter=parallelogramPerimeter;whiteSpace=wrap;html=1;fixedSize=1;" parent="WYaakM-BK-kbKQ9GXrH5-1" vertex="1">
                    <mxGeometry x="76.25" y="350" width="157.5" height="60" as="geometry"/>
                </mxCell>
                <mxCell id="CWt5amc0Uw6hjU2jiGRZ-4" style="edgeStyle=none;html=1;exitX=0.5;exitY=1;exitDx=0;exitDy=0;" parent="WYaakM-BK-kbKQ9GXrH5-1" source="CWt5amc0Uw6hjU2jiGRZ-2" target="PL3wQIosWrRBUe69JCpg-8" edge="1">
                    <mxGeometry relative="1" as="geometry"/>
                </mxCell>
                <mxCell id="CWt5amc0Uw6hjU2jiGRZ-2" value="int j = 0" style="rounded=0;whiteSpace=wrap;html=1;" parent="WYaakM-BK-kbKQ9GXrH5-1" vertex="1">
                    <mxGeometry x="80" y="590" width="160" height="60" as="geometry"/>
                </mxCell>
                <mxCell id="CWt5amc0Uw6hjU2jiGRZ-6" value="" style="endArrow=classic;html=1;entryX=0;entryY=0.5;entryDx=0;entryDy=0;" parent="WYaakM-BK-kbKQ9GXrH5-1" target="PL3wQIosWrRBUe69JCpg-8" edge="1">
                    <mxGeometry width="50" height="50" relative="1" as="geometry">
                        <mxPoint x="330" y="1140" as="sourcePoint"/>
                        <mxPoint x="440" y="820" as="targetPoint"/>
                        <Array as="points">
                            <mxPoint x="30" y="1140"/>
                            <mxPoint x="30" y="750"/>
                        </Array>
                    </mxGeometry>
                </mxCell>
                <mxCell id="CWt5amc0Uw6hjU2jiGRZ-9" style="edgeStyle=none;html=1;" parent="WYaakM-BK-kbKQ9GXrH5-1" source="CWt5amc0Uw6hjU2jiGRZ-7" edge="1">
                    <mxGeometry relative="1" as="geometry">
                        <mxPoint x="161" y="1140" as="targetPoint"/>
                    </mxGeometry>
                </mxCell>
                <mxCell id="CWt5amc0Uw6hjU2jiGRZ-7" value="j = j + 1" style="rounded=0;whiteSpace=wrap;html=1;" parent="WYaakM-BK-kbKQ9GXrH5-1" vertex="1">
                    <mxGeometry x="101.25" y="1050" width="120" height="50" as="geometry"/>
                </mxCell>
                <mxCell id="CWt5amc0Uw6hjU2jiGRZ-12" value="No" style="text;html=1;align=center;verticalAlign=middle;resizable=0;points=[];autosize=1;strokeColor=none;fillColor=none;" parent="WYaakM-BK-kbKQ9GXrH5-1" vertex="1">
                    <mxGeometry x="245" y="850" width="30" height="20" as="geometry"/>
                </mxCell>
                <mxCell id="CWt5amc0Uw6hjU2jiGRZ-13" value="Yes" style="text;html=1;align=center;verticalAlign=middle;resizable=0;points=[];autosize=1;strokeColor=none;fillColor=none;" parent="WYaakM-BK-kbKQ9GXrH5-1" vertex="1">
                    <mxGeometry x="160" y="930" width="40" height="20" as="geometry"/>
                </mxCell>
                <mxCell id="CWt5amc0Uw6hjU2jiGRZ-14" value="string[] CreateNewArray&lt;br&gt;(string[] someArray,&amp;nbsp;int length, int number)&lt;br&gt;// Аргументы метода: &lt;br&gt;заданный массив строк someArray,&lt;br&gt;длина нового массива length,&lt;br&gt;число number, которое ограничивает&lt;br&gt;число символов строки в новом массиве.&lt;br&gt;// Метод возвращает новый массив&lt;br&gt;&amp;nbsp;строк newArray из строк исходного &lt;br&gt;массива, длина которых &amp;lt;= number.&amp;nbsp;" style="text;html=1;align=left;verticalAlign=middle;resizable=0;points=[];autosize=1;strokeColor=none;fillColor=none;" parent="WYaakM-BK-kbKQ9GXrH5-1" vertex="1">
                    <mxGeometry x="289" y="20" width="250" height="150" as="geometry"/>
                </mxCell>
                <mxCell id="zIz8TzmVw3z0ew3yAKeJ-1" value="" style="endArrow=none;html=1;" parent="WYaakM-BK-kbKQ9GXrH5-1" edge="1">
                    <mxGeometry width="50" height="50" relative="1" as="geometry">
                        <mxPoint x="330" y="170" as="sourcePoint"/>
                        <mxPoint x="330" y="20" as="targetPoint"/>
                        <Array as="points">
                            <mxPoint x="280" y="170"/>
                            <mxPoint x="280" y="20"/>
                        </Array>
                    </mxGeometry>
                </mxCell>
                <mxCell id="Iyp2aAmBb2lgy-oFgMpM-0" style="edgeStyle=none;html=1;exitX=0.5;exitY=1;exitDx=0;exitDy=0;entryX=0.444;entryY=0;entryDx=0;entryDy=0;entryPerimeter=0;" parent="WYaakM-BK-kbKQ9GXrH5-1" source="Iyp2aAmBb2lgy-oFgMpM-1" target="Iyp2aAmBb2lgy-oFgMpM-3" edge="1">
                    <mxGeometry relative="1" as="geometry"/>
                </mxCell>
                <mxCell id="Iyp2aAmBb2lgy-oFgMpM-1" value="start" style="ellipse;whiteSpace=wrap;html=1;" parent="WYaakM-BK-kbKQ9GXrH5-1" vertex="1">
                    <mxGeometry x="595" y="20" width="90" height="50" as="geometry"/>
                </mxCell>
                <mxCell id="Iyp2aAmBb2lgy-oFgMpM-2" style="edgeStyle=none;html=1;exitX=0.5;exitY=1;exitDx=0;exitDy=0;entryX=0.5;entryY=0;entryDx=0;entryDy=0;" parent="WYaakM-BK-kbKQ9GXrH5-1" source="Iyp2aAmBb2lgy-oFgMpM-3" target="Iyp2aAmBb2lgy-oFgMpM-5" edge="1">
                    <mxGeometry relative="1" as="geometry"/>
                </mxCell>
                <mxCell id="Iyp2aAmBb2lgy-oFgMpM-3" value="Input arrayLength" style="shape=parallelogram;perimeter=parallelogramPerimeter;whiteSpace=wrap;html=1;fixedSize=1;" parent="WYaakM-BK-kbKQ9GXrH5-1" vertex="1">
                    <mxGeometry x="580" y="120" width="135" height="60" as="geometry"/>
                </mxCell>
                <mxCell id="Iyp2aAmBb2lgy-oFgMpM-4" style="edgeStyle=none;html=1;exitX=0.5;exitY=1;exitDx=0;exitDy=0;" parent="WYaakM-BK-kbKQ9GXrH5-1" source="Iyp2aAmBb2lgy-oFgMpM-5" target="Iyp2aAmBb2lgy-oFgMpM-7" edge="1">
                    <mxGeometry relative="1" as="geometry"/>
                </mxCell>
                <mxCell id="Iyp2aAmBb2lgy-oFgMpM-5" value="&lt;p class=&quot;MsoNormal&quot; style=&quot;margin-bottom: 0cm ; margin-bottom: 0.0001pt ; line-height: 14.25pt ; background: #1e1e1e&quot;&gt;&lt;span lang=&quot;EN-US&quot;&gt;&lt;font style=&quot;font-size: 12px&quot;&gt;string[] stringArray&lt;br&gt;= FillArray(arrayLength)&lt;/font&gt;&lt;/span&gt;&lt;/p&gt;" style="shape=process;whiteSpace=wrap;html=1;backgroundOutline=1;" parent="WYaakM-BK-kbKQ9GXrH5-1" vertex="1">
                    <mxGeometry x="522.5" y="220" width="250" height="80" as="geometry"/>
                </mxCell>
                <mxCell id="Iyp2aAmBb2lgy-oFgMpM-6" style="edgeStyle=none;html=1;exitX=0.5;exitY=1;exitDx=0;exitDy=0;entryX=0.5;entryY=0;entryDx=0;entryDy=0;" parent="WYaakM-BK-kbKQ9GXrH5-1" source="Iyp2aAmBb2lgy-oFgMpM-7" target="Iyp2aAmBb2lgy-oFgMpM-9" edge="1">
                    <mxGeometry relative="1" as="geometry"/>
                </mxCell>
                <mxCell id="Iyp2aAmBb2lgy-oFgMpM-7" value="&lt;p class=&quot;MsoNormal&quot; style=&quot;margin-bottom: 0cm ; margin-bottom: 0.0001pt ; line-height: 14.25pt ; background: #1e1e1e&quot;&gt;&lt;span lang=&quot;EN-US&quot;&gt;&lt;font style=&quot;font-size: 12px&quot;&gt;int newArrayLength=&lt;/font&gt;&lt;/span&gt;&lt;/p&gt;&lt;p class=&quot;MsoNormal&quot; style=&quot;margin-bottom: 0cm ; margin-bottom: 0.0001pt ; line-height: 14.25pt ; background: #1e1e1e&quot;&gt;&amp;nbsp;FindNewArrayLength(stringArray, 3)&lt;/p&gt;" style="shape=process;whiteSpace=wrap;html=1;backgroundOutline=1;" parent="WYaakM-BK-kbKQ9GXrH5-1" vertex="1">
                    <mxGeometry x="522.5" y="370" width="250" height="80" as="geometry"/>
                </mxCell>
                <mxCell id="Iyp2aAmBb2lgy-oFgMpM-8" style="edgeStyle=none;html=1;exitX=0.5;exitY=1;exitDx=0;exitDy=0;entryX=0.5;entryY=0;entryDx=0;entryDy=0;" parent="WYaakM-BK-kbKQ9GXrH5-1" source="Iyp2aAmBb2lgy-oFgMpM-9" target="Iyp2aAmBb2lgy-oFgMpM-11" edge="1">
                    <mxGeometry relative="1" as="geometry"/>
                </mxCell>
                <mxCell id="Iyp2aAmBb2lgy-oFgMpM-9" value="&lt;span lang=&quot;EN-US&quot; style=&quot;line-height: 115%&quot;&gt;&lt;font style=&quot;font-size: 12px&quot;&gt;string[] newArray = CreateNewArray(stringArray, newArrayLength, 3)&lt;/font&gt;&lt;/span&gt;" style="shape=process;whiteSpace=wrap;html=1;backgroundOutline=1;" parent="WYaakM-BK-kbKQ9GXrH5-1" vertex="1">
                    <mxGeometry x="517.5" y="505" width="260" height="80" as="geometry"/>
                </mxCell>
                <mxCell id="Iyp2aAmBb2lgy-oFgMpM-10" style="edgeStyle=none;html=1;exitX=0.5;exitY=1;exitDx=0;exitDy=0;" parent="WYaakM-BK-kbKQ9GXrH5-1" source="Iyp2aAmBb2lgy-oFgMpM-11" target="Iyp2aAmBb2lgy-oFgMpM-13" edge="1">
                    <mxGeometry relative="1" as="geometry"/>
                </mxCell>
                <mxCell id="Iyp2aAmBb2lgy-oFgMpM-11" value="string PrintArray(newarray)" style="shape=process;whiteSpace=wrap;html=1;backgroundOutline=1;" parent="WYaakM-BK-kbKQ9GXrH5-1" vertex="1">
                    <mxGeometry x="517.5" y="650" width="260" height="80" as="geometry"/>
                </mxCell>
                <mxCell id="Iyp2aAmBb2lgy-oFgMpM-12" style="edgeStyle=none;html=1;exitX=0.5;exitY=0.888;exitDx=0;exitDy=0;exitPerimeter=0;" parent="WYaakM-BK-kbKQ9GXrH5-1" source="Iyp2aAmBb2lgy-oFgMpM-13" target="Iyp2aAmBb2lgy-oFgMpM-14" edge="1">
                    <mxGeometry relative="1" as="geometry"/>
                </mxCell>
                <mxCell id="Iyp2aAmBb2lgy-oFgMpM-13" value="&lt;span lang=&quot;EN-US&quot; style=&quot;line-height: 115%&quot;&gt;&lt;font style=&quot;font-size: 12px&quot;&gt;Console.Write($&quot;{PrintArray(stringArray)} -&amp;gt; {PrintArray(newArray)}&quot;)&lt;/font&gt;&lt;/span&gt;" style="shape=document;whiteSpace=wrap;html=1;boundedLbl=1;" parent="WYaakM-BK-kbKQ9GXrH5-1" vertex="1">
                    <mxGeometry x="522.5" y="790" width="250" height="90" as="geometry"/>
                </mxCell>
                <mxCell id="Iyp2aAmBb2lgy-oFgMpM-14" value="End" style="ellipse;whiteSpace=wrap;html=1;" parent="WYaakM-BK-kbKQ9GXrH5-1" vertex="1">
                    <mxGeometry x="597.5" y="970" width="100" height="70" as="geometry"/>
                </mxCell>
                <mxCell id="Iyp2aAmBb2lgy-oFgMpM-16" value="" style="endArrow=none;html=1;fontFamily=Helvetica;fontSize=12;" parent="WYaakM-BK-kbKQ9GXrH5-1" edge="1">
                    <mxGeometry width="50" height="50" relative="1" as="geometry">
                        <mxPoint x="750" y="100" as="sourcePoint"/>
                        <mxPoint x="750" y="10" as="targetPoint"/>
                        <Array as="points">
                            <mxPoint x="720" y="100"/>
                            <mxPoint x="720" y="10"/>
                        </Array>
                    </mxGeometry>
                </mxCell>
                <mxCell id="VbtIMMGN2p6MQN4TVLNB-0" value="Схема&amp;nbsp;&lt;br&gt;решения&amp;nbsp;&lt;br&gt;всей&amp;nbsp;&lt;br&gt;задачи" style="text;html=1;align=center;verticalAlign=middle;resizable=0;points=[];autosize=1;strokeColor=none;fillColor=none;fontSize=12;fontFamily=Helvetica;" parent="WYaakM-BK-kbKQ9GXrH5-1" vertex="1">
                    <mxGeometry x="730" y="20" width="70" height="60" as="geometry"/>
                </mxCell>
                <mxCell id="VbtIMMGN2p6MQN4TVLNB-1" value="" style="endArrow=none;dashed=1;html=1;exitX=1.022;exitY=0.38;exitDx=0;exitDy=0;exitPerimeter=0;" parent="WYaakM-BK-kbKQ9GXrH5-1" source="Iyp2aAmBb2lgy-oFgMpM-1" edge="1">
                    <mxGeometry width="50" height="50" relative="1" as="geometry">
                        <mxPoint x="430" y="130" as="sourcePoint"/>
                        <mxPoint x="720" y="40" as="targetPoint"/>
                    </mxGeometry>
                </mxCell>
                <mxCell id="VbtIMMGN2p6MQN4TVLNB-2" value="" style="endArrow=none;dashed=1;html=1;dashPattern=1 3;strokeWidth=2;entryX=0;entryY=0.5;entryDx=0;entryDy=0;exitX=0.172;exitY=1.04;exitDx=0;exitDy=0;exitPerimeter=0;" parent="WYaakM-BK-kbKQ9GXrH5-1" source="CWt5amc0Uw6hjU2jiGRZ-14" target="Iyp2aAmBb2lgy-oFgMpM-9" edge="1">
                    <mxGeometry width="50" height="50" relative="1" as="geometry">
                        <mxPoint x="430" y="630" as="sourcePoint"/>
                        <mxPoint x="480" y="580" as="targetPoint"/>
                    </mxGeometry>
                </mxCell>
            </root>
        </mxGraphModel>
    </diagram>
    <diagram id="3hS6Tdo-KlKZ7LKPWp7K" name="PrintArray">
        <mxGraphModel dx="288" dy="494" grid="1" gridSize="10" guides="1" tooltips="1" connect="1" arrows="1" fold="1" page="1" pageScale="1" pageWidth="827" pageHeight="1169" math="0" shadow="0">
            <root>
                <mxCell id="xoLuCBkKCQd0fefoIbll-0"/>
                <mxCell id="xoLuCBkKCQd0fefoIbll-1" parent="xoLuCBkKCQd0fefoIbll-0"/>
                <mxCell id="rh9tBhnNMq1vZiG94Zch-0" style="edgeStyle=none;html=1;exitX=0.5;exitY=1;exitDx=0;exitDy=0;entryX=0.444;entryY=0;entryDx=0;entryDy=0;entryPerimeter=0;" parent="xoLuCBkKCQd0fefoIbll-1" source="rh9tBhnNMq1vZiG94Zch-1" target="rh9tBhnNMq1vZiG94Zch-3" edge="1">
                    <mxGeometry relative="1" as="geometry"/>
                </mxCell>
                <mxCell id="rh9tBhnNMq1vZiG94Zch-1" value="start" style="ellipse;whiteSpace=wrap;html=1;" parent="xoLuCBkKCQd0fefoIbll-1" vertex="1">
                    <mxGeometry x="590" y="20" width="90" height="50" as="geometry"/>
                </mxCell>
                <mxCell id="rh9tBhnNMq1vZiG94Zch-2" style="edgeStyle=none;html=1;exitX=0.5;exitY=1;exitDx=0;exitDy=0;entryX=0.5;entryY=0;entryDx=0;entryDy=0;" parent="xoLuCBkKCQd0fefoIbll-1" source="rh9tBhnNMq1vZiG94Zch-3" target="rh9tBhnNMq1vZiG94Zch-5" edge="1">
                    <mxGeometry relative="1" as="geometry"/>
                </mxCell>
                <mxCell id="rh9tBhnNMq1vZiG94Zch-3" value="Input arrayLength" style="shape=parallelogram;perimeter=parallelogramPerimeter;whiteSpace=wrap;html=1;fixedSize=1;" parent="xoLuCBkKCQd0fefoIbll-1" vertex="1">
                    <mxGeometry x="577.5" y="140" width="135" height="60" as="geometry"/>
                </mxCell>
                <mxCell id="rh9tBhnNMq1vZiG94Zch-4" style="edgeStyle=none;html=1;exitX=0.5;exitY=1;exitDx=0;exitDy=0;" parent="xoLuCBkKCQd0fefoIbll-1" source="rh9tBhnNMq1vZiG94Zch-5" target="rh9tBhnNMq1vZiG94Zch-7" edge="1">
                    <mxGeometry relative="1" as="geometry"/>
                </mxCell>
                <mxCell id="rh9tBhnNMq1vZiG94Zch-5" value="&lt;p class=&quot;MsoNormal&quot; style=&quot;margin-bottom: 0cm ; margin-bottom: 0.0001pt ; line-height: 14.25pt ; background: #1e1e1e&quot;&gt;&lt;span lang=&quot;EN-US&quot;&gt;&lt;font style=&quot;font-size: 12px&quot;&gt;string[] stringArray&lt;br&gt;= FillArray(arrayLength)&lt;/font&gt;&lt;/span&gt;&lt;/p&gt;" style="shape=process;whiteSpace=wrap;html=1;backgroundOutline=1;" parent="xoLuCBkKCQd0fefoIbll-1" vertex="1">
                    <mxGeometry x="520" y="270" width="250" height="80" as="geometry"/>
                </mxCell>
                <mxCell id="rh9tBhnNMq1vZiG94Zch-6" style="edgeStyle=none;html=1;exitX=0.5;exitY=1;exitDx=0;exitDy=0;entryX=0.5;entryY=0;entryDx=0;entryDy=0;" parent="xoLuCBkKCQd0fefoIbll-1" source="rh9tBhnNMq1vZiG94Zch-7" target="zv7p3Lph-I4LMq91jP-w-0" edge="1">
                    <mxGeometry relative="1" as="geometry">
                        <mxPoint x="645" y="550" as="targetPoint"/>
                    </mxGeometry>
                </mxCell>
                <mxCell id="rh9tBhnNMq1vZiG94Zch-7" value="&lt;p class=&quot;MsoNormal&quot; style=&quot;margin-bottom: 0cm ; margin-bottom: 0.0001pt ; line-height: 14.25pt ; background: #1e1e1e&quot;&gt;&lt;span lang=&quot;EN-US&quot;&gt;&lt;font style=&quot;font-size: 12px&quot;&gt;int newArrayLength=&lt;/font&gt;&lt;/span&gt;&lt;/p&gt;&lt;p class=&quot;MsoNormal&quot; style=&quot;margin-bottom: 0cm ; margin-bottom: 0.0001pt ; line-height: 14.25pt ; background: #1e1e1e&quot;&gt;&amp;nbsp;FindNewArrayLength(stringArray, 3)&lt;/p&gt;" style="shape=process;whiteSpace=wrap;html=1;backgroundOutline=1;" parent="xoLuCBkKCQd0fefoIbll-1" vertex="1">
                    <mxGeometry x="520" y="410" width="250" height="80" as="geometry"/>
                </mxCell>
                <mxCell id="rh9tBhnNMq1vZiG94Zch-8" style="edgeStyle=none;html=1;exitX=0.5;exitY=1;exitDx=0;exitDy=0;entryX=0.5;entryY=0;entryDx=0;entryDy=0;" parent="xoLuCBkKCQd0fefoIbll-1" edge="1">
                    <mxGeometry relative="1" as="geometry">
                        <mxPoint x="644.5" y="640" as="sourcePoint"/>
                        <mxPoint x="644.5" y="705" as="targetPoint"/>
                    </mxGeometry>
                </mxCell>
                <mxCell id="rh9tBhnNMq1vZiG94Zch-9" style="edgeStyle=none;html=1;exitX=0.5;exitY=1;exitDx=0;exitDy=0;" parent="xoLuCBkKCQd0fefoIbll-1" source="zv7p3Lph-I4LMq91jP-w-1" target="rh9tBhnNMq1vZiG94Zch-11" edge="1">
                    <mxGeometry relative="1" as="geometry">
                        <mxPoint x="715" y="830" as="sourcePoint"/>
                        <Array as="points"/>
                    </mxGeometry>
                </mxCell>
                <mxCell id="rh9tBhnNMq1vZiG94Zch-10" style="edgeStyle=none;html=1;exitX=0.5;exitY=0.888;exitDx=0;exitDy=0;exitPerimeter=0;" parent="xoLuCBkKCQd0fefoIbll-1" source="rh9tBhnNMq1vZiG94Zch-11" target="rh9tBhnNMq1vZiG94Zch-12" edge="1">
                    <mxGeometry relative="1" as="geometry"/>
                </mxCell>
                <mxCell id="rh9tBhnNMq1vZiG94Zch-11" value="&lt;span lang=&quot;EN-US&quot; style=&quot;line-height: 115%&quot;&gt;&lt;font style=&quot;font-size: 12px&quot;&gt;Console.Write($&quot;{PrintArray(stringArray)} -&amp;gt; {PrintArray(newArray)}&quot;)&lt;/font&gt;&lt;/span&gt;" style="shape=document;whiteSpace=wrap;html=1;boundedLbl=1;" parent="xoLuCBkKCQd0fefoIbll-1" vertex="1">
                    <mxGeometry x="525" y="880" width="250" height="90" as="geometry"/>
                </mxCell>
                <mxCell id="rh9tBhnNMq1vZiG94Zch-12" value="End" style="ellipse;whiteSpace=wrap;html=1;" parent="xoLuCBkKCQd0fefoIbll-1" vertex="1">
                    <mxGeometry x="600" y="1040" width="100" height="70" as="geometry"/>
                </mxCell>
                <mxCell id="rh9tBhnNMq1vZiG94Zch-14" value="Схема&amp;nbsp;&lt;br&gt;решения&amp;nbsp;&lt;br&gt;всей&amp;nbsp;&lt;br&gt;задачи" style="text;html=1;align=center;verticalAlign=middle;resizable=0;points=[];autosize=1;strokeColor=none;fillColor=none;fontSize=12;fontFamily=Helvetica;" parent="xoLuCBkKCQd0fefoIbll-1" vertex="1">
                    <mxGeometry x="750" y="20" width="70" height="60" as="geometry"/>
                </mxCell>
                <mxCell id="rh9tBhnNMq1vZiG94Zch-15" value="" style="endArrow=none;dashed=1;html=1;exitX=1.022;exitY=0.38;exitDx=0;exitDy=0;exitPerimeter=0;" parent="xoLuCBkKCQd0fefoIbll-1" source="rh9tBhnNMq1vZiG94Zch-1" edge="1">
                    <mxGeometry width="50" height="50" relative="1" as="geometry">
                        <mxPoint x="497.5" y="230" as="sourcePoint"/>
                        <mxPoint x="740" y="39" as="targetPoint"/>
                    </mxGeometry>
                </mxCell>
                <mxCell id="zv7p3Lph-I4LMq91jP-w-0" value="&lt;span lang=&quot;EN-US&quot; style=&quot;line-height: 115%&quot;&gt;&lt;font style=&quot;font-size: 12px&quot;&gt;string[] newArray = CreateNewArray(stringArray, newArrayLength, 3)&lt;/font&gt;&lt;/span&gt;" style="shape=process;whiteSpace=wrap;html=1;backgroundOutline=1;" parent="xoLuCBkKCQd0fefoIbll-1" vertex="1">
                    <mxGeometry x="515" y="560" width="260" height="80" as="geometry"/>
                </mxCell>
                <mxCell id="zv7p3Lph-I4LMq91jP-w-1" value="string PrintArray(newarray)" style="shape=process;whiteSpace=wrap;html=1;backgroundOutline=1;" parent="xoLuCBkKCQd0fefoIbll-1" vertex="1">
                    <mxGeometry x="520" y="710" width="260" height="80" as="geometry"/>
                </mxCell>
                <mxCell id="DRMMR42_bMjvzJynJBhf-0" value="" style="endArrow=none;html=1;fontFamily=Helvetica;fontSize=12;" parent="xoLuCBkKCQd0fefoIbll-1" edge="1">
                    <mxGeometry width="50" height="50" relative="1" as="geometry">
                        <mxPoint x="770" y="100" as="sourcePoint"/>
                        <mxPoint x="770" y="10" as="targetPoint"/>
                        <Array as="points">
                            <mxPoint x="740" y="100"/>
                            <mxPoint x="740" y="10"/>
                        </Array>
                    </mxGeometry>
                </mxCell>
                <mxCell id="XgFZGprJtmEcf1Q_QA0A-9" style="edgeStyle=none;html=1;exitX=0.5;exitY=1;exitDx=0;exitDy=0;entryX=0.5;entryY=0;entryDx=0;entryDy=0;" parent="xoLuCBkKCQd0fefoIbll-1" source="DRMMR42_bMjvzJynJBhf-2" target="qH4bnixYEY_QQ4stssxe-0" edge="1">
                    <mxGeometry relative="1" as="geometry"/>
                </mxCell>
                <mxCell id="DRMMR42_bMjvzJynJBhf-2" value="start" style="ellipse;whiteSpace=wrap;html=1;" parent="xoLuCBkKCQd0fefoIbll-1" vertex="1">
                    <mxGeometry x="120" y="20" width="90" height="50" as="geometry"/>
                </mxCell>
                <mxCell id="XgFZGprJtmEcf1Q_QA0A-8" style="edgeStyle=none;html=1;exitX=0.5;exitY=1;exitDx=0;exitDy=0;" parent="xoLuCBkKCQd0fefoIbll-1" source="qH4bnixYEY_QQ4stssxe-0" target="nFzpqYqpLPDZ_ztaKuuR-0" edge="1">
                    <mxGeometry relative="1" as="geometry"/>
                </mxCell>
                <mxCell id="qH4bnixYEY_QQ4stssxe-0" value="&lt;b&gt;Input&lt;/b&gt; string[] array" style="shape=parallelogram;perimeter=parallelogramPerimeter;whiteSpace=wrap;html=1;fixedSize=1;" parent="xoLuCBkKCQd0fefoIbll-1" vertex="1">
                    <mxGeometry x="85" y="120" width="160" height="60" as="geometry"/>
                </mxCell>
                <mxCell id="XgFZGprJtmEcf1Q_QA0A-6" style="edgeStyle=none;html=1;exitX=1;exitY=0.5;exitDx=0;exitDy=0;entryX=0;entryY=0.5;entryDx=0;entryDy=0;" parent="xoLuCBkKCQd0fefoIbll-1" source="nFzpqYqpLPDZ_ztaKuuR-0" target="XgFZGprJtmEcf1Q_QA0A-4" edge="1">
                    <mxGeometry relative="1" as="geometry"/>
                </mxCell>
                <mxCell id="XgFZGprJtmEcf1Q_QA0A-7" style="edgeStyle=none;html=1;exitX=0.5;exitY=1;exitDx=0;exitDy=0;" parent="xoLuCBkKCQd0fefoIbll-1" source="nFzpqYqpLPDZ_ztaKuuR-0" target="nFzpqYqpLPDZ_ztaKuuR-1" edge="1">
                    <mxGeometry relative="1" as="geometry"/>
                </mxCell>
                <mxCell id="nFzpqYqpLPDZ_ztaKuuR-0" value="array.Length == 0" style="rhombus;whiteSpace=wrap;html=1;" parent="xoLuCBkKCQd0fefoIbll-1" vertex="1">
                    <mxGeometry x="90" y="220" width="150" height="100" as="geometry"/>
                </mxCell>
                <mxCell id="XgFZGprJtmEcf1Q_QA0A-10" style="edgeStyle=none;html=1;exitX=0.5;exitY=1;exitDx=0;exitDy=0;entryX=0.5;entryY=0;entryDx=0;entryDy=0;" parent="xoLuCBkKCQd0fefoIbll-1" source="nFzpqYqpLPDZ_ztaKuuR-1" target="XgFZGprJtmEcf1Q_QA0A-0" edge="1">
                    <mxGeometry relative="1" as="geometry"/>
                </mxCell>
                <mxCell id="nFzpqYqpLPDZ_ztaKuuR-1" value="string result = &quot; [ &quot;" style="rounded=0;whiteSpace=wrap;html=1;" parent="xoLuCBkKCQd0fefoIbll-1" vertex="1">
                    <mxGeometry x="105" y="350" width="120" height="60" as="geometry"/>
                </mxCell>
                <mxCell id="XgFZGprJtmEcf1Q_QA0A-11" style="edgeStyle=none;html=1;exitX=0.5;exitY=1;exitDx=0;exitDy=0;entryX=0.5;entryY=0;entryDx=0;entryDy=0;" parent="xoLuCBkKCQd0fefoIbll-1" source="XgFZGprJtmEcf1Q_QA0A-0" target="XgFZGprJtmEcf1Q_QA0A-1" edge="1">
                    <mxGeometry relative="1" as="geometry"/>
                </mxCell>
                <mxCell id="XgFZGprJtmEcf1Q_QA0A-17" style="edgeStyle=none;html=1;exitX=1;exitY=0.5;exitDx=0;exitDy=0;entryX=0;entryY=0.5;entryDx=0;entryDy=0;fontFamily=Helvetica;fontSize=12;" parent="xoLuCBkKCQd0fefoIbll-1" source="XgFZGprJtmEcf1Q_QA0A-0" target="XgFZGprJtmEcf1Q_QA0A-16" edge="1">
                    <mxGeometry relative="1" as="geometry"/>
                </mxCell>
                <mxCell id="XgFZGprJtmEcf1Q_QA0A-0" value="i = 0, array.Length -1, 1" style="shape=hexagon;perimeter=hexagonPerimeter2;whiteSpace=wrap;html=1;fixedSize=1;" parent="xoLuCBkKCQd0fefoIbll-1" vertex="1">
                    <mxGeometry x="80" y="450" width="170" height="80" as="geometry"/>
                </mxCell>
                <mxCell id="XgFZGprJtmEcf1Q_QA0A-12" style="edgeStyle=none;html=1;exitX=0.5;exitY=1;exitDx=0;exitDy=0;entryX=0.542;entryY=0.167;entryDx=0;entryDy=0;entryPerimeter=0;" parent="xoLuCBkKCQd0fefoIbll-1" source="XgFZGprJtmEcf1Q_QA0A-1" target="XgFZGprJtmEcf1Q_QA0A-2" edge="1">
                    <mxGeometry relative="1" as="geometry"/>
                </mxCell>
                <mxCell id="XgFZGprJtmEcf1Q_QA0A-13" style="edgeStyle=none;html=1;exitX=1;exitY=0.5;exitDx=0;exitDy=0;entryX=0;entryY=0.5;entryDx=0;entryDy=0;" parent="xoLuCBkKCQd0fefoIbll-1" source="XgFZGprJtmEcf1Q_QA0A-1" target="XgFZGprJtmEcf1Q_QA0A-3" edge="1">
                    <mxGeometry relative="1" as="geometry"/>
                </mxCell>
                <mxCell id="XgFZGprJtmEcf1Q_QA0A-1" value="i == array.Length - 1&amp;nbsp;" style="rhombus;whiteSpace=wrap;html=1;" parent="xoLuCBkKCQd0fefoIbll-1" vertex="1">
                    <mxGeometry x="90" y="600" width="150" height="100" as="geometry"/>
                </mxCell>
                <mxCell id="XgFZGprJtmEcf1Q_QA0A-14" style="edgeStyle=none;html=1;exitX=0.5;exitY=1;exitDx=0;exitDy=0;" parent="xoLuCBkKCQd0fefoIbll-1" source="XgFZGprJtmEcf1Q_QA0A-2" edge="1">
                    <mxGeometry relative="1" as="geometry">
                        <mxPoint x="160" y="880" as="targetPoint"/>
                    </mxGeometry>
                </mxCell>
                <mxCell id="XgFZGprJtmEcf1Q_QA0A-2" value="&lt;span&gt;result = result +&lt;/span&gt;&lt;br&gt;&lt;span&gt;$&quot;\&quot;{array[i]}\&quot;, &quot;&lt;/span&gt;" style="rounded=0;whiteSpace=wrap;html=1;" parent="xoLuCBkKCQd0fefoIbll-1" vertex="1">
                    <mxGeometry x="100" y="750" width="120" height="60" as="geometry"/>
                </mxCell>
                <mxCell id="XgFZGprJtmEcf1Q_QA0A-15" style="edgeStyle=none;html=1;exitX=1;exitY=0.5;exitDx=0;exitDy=0;entryX=0.006;entryY=0.413;entryDx=0;entryDy=0;entryPerimeter=0;" parent="xoLuCBkKCQd0fefoIbll-1" source="XgFZGprJtmEcf1Q_QA0A-3" target="XgFZGprJtmEcf1Q_QA0A-0" edge="1">
                    <mxGeometry relative="1" as="geometry">
                        <mxPoint x="30" y="480" as="targetPoint"/>
                        <Array as="points">
                            <mxPoint x="440" y="650"/>
                            <mxPoint x="440" y="880"/>
                            <mxPoint x="30" y="880"/>
                            <mxPoint x="30" y="483"/>
                        </Array>
                    </mxGeometry>
                </mxCell>
                <mxCell id="XgFZGprJtmEcf1Q_QA0A-3" value="&lt;span lang=&quot;EN-US&quot; style=&quot;line-height: 115%&quot;&gt;&lt;font style=&quot;font-size: 12px&quot;&gt;result = result + &lt;br&gt;$&quot;\&quot;{array[i]}\&quot;&quot;&lt;/font&gt;&lt;/span&gt;" style="rounded=0;whiteSpace=wrap;html=1;" parent="xoLuCBkKCQd0fefoIbll-1" vertex="1">
                    <mxGeometry x="280" y="620" width="120" height="60" as="geometry"/>
                </mxCell>
                <mxCell id="XgFZGprJtmEcf1Q_QA0A-19" style="edgeStyle=none;html=1;exitX=0.5;exitY=1;exitDx=0;exitDy=0;entryX=0.444;entryY=0.01;entryDx=0;entryDy=0;entryPerimeter=0;fontFamily=Helvetica;fontSize=12;" parent="xoLuCBkKCQd0fefoIbll-1" source="XgFZGprJtmEcf1Q_QA0A-4" target="XgFZGprJtmEcf1Q_QA0A-18" edge="1">
                    <mxGeometry relative="1" as="geometry"/>
                </mxCell>
                <mxCell id="XgFZGprJtmEcf1Q_QA0A-4" value="&quot; [ ] &quot;" style="rounded=0;whiteSpace=wrap;html=1;" parent="xoLuCBkKCQd0fefoIbll-1" vertex="1">
                    <mxGeometry x="280" y="240" width="120" height="60" as="geometry"/>
                </mxCell>
                <mxCell id="XgFZGprJtmEcf1Q_QA0A-20" style="edgeStyle=none;html=1;exitX=0.5;exitY=0;exitDx=0;exitDy=0;fontFamily=Helvetica;fontSize=12;" parent="xoLuCBkKCQd0fefoIbll-1" source="XgFZGprJtmEcf1Q_QA0A-16" edge="1">
                    <mxGeometry relative="1" as="geometry">
                        <mxPoint x="340" y="410" as="targetPoint"/>
                    </mxGeometry>
                </mxCell>
                <mxCell id="XgFZGprJtmEcf1Q_QA0A-16" value="&lt;span lang=&quot;EN-US&quot; style=&quot;line-height: 115%&quot;&gt;&lt;font style=&quot;font-size: 12px&quot;&gt;result = result + &lt;br&gt;&quot; ] &quot;&lt;/font&gt;&lt;/span&gt;" style="rounded=0;whiteSpace=wrap;html=1;" parent="xoLuCBkKCQd0fefoIbll-1" vertex="1">
                    <mxGeometry x="280" y="460" width="120" height="60" as="geometry"/>
                </mxCell>
                <mxCell id="XgFZGprJtmEcf1Q_QA0A-18" value="End" style="ellipse;whiteSpace=wrap;html=1;fontFamily=Helvetica;fontSize=12;" parent="xoLuCBkKCQd0fefoIbll-1" vertex="1">
                    <mxGeometry x="300" y="355" width="90" height="50" as="geometry"/>
                </mxCell>
                <mxCell id="XgFZGprJtmEcf1Q_QA0A-21" value="Yes" style="text;html=1;align=center;verticalAlign=middle;resizable=0;points=[];autosize=1;strokeColor=none;fillColor=none;fontSize=12;fontFamily=Helvetica;" parent="xoLuCBkKCQd0fefoIbll-1" vertex="1">
                    <mxGeometry x="230" y="230" width="40" height="20" as="geometry"/>
                </mxCell>
                <mxCell id="XgFZGprJtmEcf1Q_QA0A-22" value="No" style="text;html=1;align=center;verticalAlign=middle;resizable=0;points=[];autosize=1;strokeColor=none;fillColor=none;fontSize=12;fontFamily=Helvetica;" parent="xoLuCBkKCQd0fefoIbll-1" vertex="1">
                    <mxGeometry x="175" y="320" width="30" height="20" as="geometry"/>
                </mxCell>
                <mxCell id="XgFZGprJtmEcf1Q_QA0A-23" value="Yes" style="text;html=1;align=center;verticalAlign=middle;resizable=0;points=[];autosize=1;strokeColor=none;fillColor=none;fontSize=12;fontFamily=Helvetica;" parent="xoLuCBkKCQd0fefoIbll-1" vertex="1">
                    <mxGeometry x="230" y="620" width="40" height="20" as="geometry"/>
                </mxCell>
                <mxCell id="XgFZGprJtmEcf1Q_QA0A-24" value="No" style="text;html=1;align=center;verticalAlign=middle;resizable=0;points=[];autosize=1;strokeColor=none;fillColor=none;fontSize=12;fontFamily=Helvetica;" parent="xoLuCBkKCQd0fefoIbll-1" vertex="1">
                    <mxGeometry x="165" y="710" width="30" height="20" as="geometry"/>
                </mxCell>
                <mxCell id="PSkWPhd8wcrrpzY4jrqb-0" value="" style="endArrow=none;html=1;" parent="xoLuCBkKCQd0fefoIbll-1" edge="1">
                    <mxGeometry width="50" height="50" relative="1" as="geometry">
                        <mxPoint x="330" y="160" as="sourcePoint"/>
                        <mxPoint x="330" y="10" as="targetPoint"/>
                        <Array as="points">
                            <mxPoint x="280" y="160"/>
                            <mxPoint x="280" y="10"/>
                        </Array>
                    </mxGeometry>
                </mxCell>
                <mxCell id="PSkWPhd8wcrrpzY4jrqb-1" value="" style="endArrow=none;dashed=1;html=1;fontFamily=Helvetica;fontSize=12;exitX=1;exitY=0.5;exitDx=0;exitDy=0;" parent="xoLuCBkKCQd0fefoIbll-1" source="DRMMR42_bMjvzJynJBhf-2" edge="1">
                    <mxGeometry width="50" height="50" relative="1" as="geometry">
                        <mxPoint x="340" y="150" as="sourcePoint"/>
                        <mxPoint x="280" y="45" as="targetPoint"/>
                    </mxGeometry>
                </mxCell>
                <mxCell id="PSkWPhd8wcrrpzY4jrqb-2" value="&lt;div style=&quot;text-align: left&quot;&gt;&lt;span&gt;string PrintArray(string[] array)&lt;/span&gt;&lt;/div&gt;&lt;div style=&quot;text-align: left&quot;&gt;&lt;span&gt;//Метод преобразует&amp;nbsp;&lt;/span&gt;&lt;/div&gt;&lt;div style=&quot;text-align: left&quot;&gt;&lt;span&gt;массив строк&lt;/span&gt;&lt;/div&gt;&lt;div style=&quot;text-align: left&quot;&gt;&lt;span&gt;&amp;nbsp;в строку для вывода&amp;nbsp;&lt;/span&gt;&lt;/div&gt;&lt;div style=&quot;text-align: left&quot;&gt;&lt;span&gt;массива на экран.&lt;/span&gt;&lt;/div&gt;&lt;div style=&quot;text-align: left&quot;&gt;&lt;span&gt;Возвращает строку result&amp;nbsp; либо&lt;/span&gt;&lt;/div&gt;&lt;div style=&quot;text-align: left&quot;&gt;&lt;span&gt;&amp;nbsp;[ ], когда длина&amp;nbsp;&lt;/span&gt;&lt;/div&gt;&lt;div style=&quot;text-align: left&quot;&gt;&lt;span&gt;&amp;nbsp;массива равна 0.&lt;/span&gt;&lt;/div&gt;&lt;div style=&quot;text-align: left&quot;&gt;&lt;span&gt;// Артгумент метода:&amp;nbsp;&lt;/span&gt;&lt;/div&gt;&lt;div style=&quot;text-align: left&quot;&gt;&lt;span&gt;массив строк array.&lt;/span&gt;&lt;/div&gt;" style="text;html=1;align=center;verticalAlign=middle;resizable=0;points=[];autosize=1;strokeColor=none;fillColor=none;fontSize=12;fontFamily=Helvetica;" parent="xoLuCBkKCQd0fefoIbll-1" vertex="1">
                    <mxGeometry x="290" y="10" width="190" height="150" as="geometry"/>
                </mxCell>
                <mxCell id="PSkWPhd8wcrrpzY4jrqb-3" value="" style="endArrow=none;dashed=1;html=1;dashPattern=1 3;strokeWidth=2;fontFamily=Helvetica;fontSize=12;exitX=0;exitY=0.5;exitDx=0;exitDy=0;" parent="xoLuCBkKCQd0fefoIbll-1" source="zv7p3Lph-I4LMq91jP-w-1" target="PSkWPhd8wcrrpzY4jrqb-2" edge="1">
                    <mxGeometry width="50" height="50" relative="1" as="geometry">
                        <mxPoint x="340" y="670" as="sourcePoint"/>
                        <mxPoint x="390" y="620" as="targetPoint"/>
                    </mxGeometry>
                </mxCell>
            </root>
        </mxGraphModel>
    </diagram>
</mxfile>